<?xml version="1.0" encoding="UTF-8"?>
<svg id="Layer_1" xmlns="http://www.w3.org/2000/svg" version="1.1" viewBox="0 0 144.9 22.5">
  <!-- Generator: Adobe Illustrator 29.4.0, SVG Export Plug-In . SVG Version: 2.1.0 Build 152)  -->
  <defs>
    <style>
      .st0 {
        fill: #fff;
      }
    </style>
  </defs>
  <path class="st0" d="M0,11.3C0,4.2,5.1,0,11.2,0s4.3.5,5.1.9l-1.5,4.8c-.9-.4-2.5-.6-3.3-.6-3.8,0-5.7,2.6-5.7,6.4s2,6.4,5.6,6.4,2.8-.3,3.4-.6l1.5,4.3c-1.1.5-3,1-5.1,1C5.1,22.5,0,18.3,0,11.3"/>
  <path class="st0" d="M26.3,11.7c3.9,0,5.2-1.1,5.2-3.2s-1.3-3.2-5.2-3.2h-1.2v6.3h1.2ZM38.4,22.1h-6.2l-4-6c-.6,0-1.2,0-1.8,0h-1.3v5.9h-5.5V.4h5.1c8.1,0,12.3,2.2,12.3,8.1s-1.3,5-3.6,6.2l4.9,7.4h0Z"/>
  <path class="st0" d="M46.5,20.8l1.6-4.5c1.5.6,4.4,1.4,7.6,1.4s3.4-.4,3.4-1.6-1.9-1.8-4.2-2.5c-3.6-1.1-7.7-2.5-7.7-7S51.3.1,56.4.1s6.2.7,7.1,1.1l-1.5,4.6c-1.6-.5-3.9-.9-6.2-.9s-3,.3-3,1.4,1.9,1.8,4.1,2.5c3.6,1.1,7.7,2.5,7.7,7s-2.5,6.5-9.9,6.5-6.7-.8-8.3-1.5"/>
  <polygon class="st0" points="69 .1 71.1 .1 79.6 12.7 88.1 .1 90.2 .1 91.8 22.1 86.2 22.1 85.5 12.7 80 20.7 78.8 20.7 73.3 12.7 72.7 22.1 67.4 22.1 69 .1 69 .1"/>
  <polygon class="st0" points="95.7 .4 101.3 .4 101.3 22.1 95.7 22.1 95.7 .4 95.7 .4"/>
  <polygon class="st0" points="110.5 5.4 103.8 5.4 103.8 .4 122.8 .4 122.8 5.4 116.1 5.4 116.1 22.1 110.5 22.1 110.5 5.4 110.5 5.4"/>
  <polygon class="st0" points="139.3 .4 139.3 8.6 131 8.6 131 .4 125.4 .4 125.4 22.1 131 22.1 131 13.5 137.9 13.5 137.9 11.1 139.3 11.1 139.3 13.5 139.3 14.5 139.3 22.1 144.9 22.1 144.9 .4 139.3 .4 139.3 .4"/>
  <polygon class="st0" points="136.1 19.1 134.2 19.1 134.2 22.1 136.1 22.1 136.1 19.1 136.1 19.1"/>
  <polygon class="st0" points="134.1 15.4 132.5 15.4 132.5 17.1 134.1 17.1 134.1 15.4 134.1 15.4"/>
  <polygon class="st0" points="137.8 15.4 136.2 15.4 136.2 17.1 137.8 17.1 137.8 15.4 137.8 15.4"/>
</svg>